<?xml version="1.0" encoding="utf-8"?>
<!-- Generator: Adobe Illustrator 25.4.1, SVG Export Plug-In . SVG Version: 6.00 Build 0)  -->
<svg version="1.0" id="katman_1" xmlns="http://www.w3.org/2000/svg" xmlns:xlink="http://www.w3.org/1999/xlink" x="0px" y="0px"
	 viewBox="0 0 1280 1024" style="enable-background:new 0 0 1280 1024;" xml:space="preserve">
<style type="text/css">
	.st0{clip-path:url(#SVGID_00000125591091109946061960000005747031761145758607_);}
	.st1{fill:#FF6000;}
	.st2{fill:url(#SVGID_00000067218520866913501350000011231359983713396108_);}
	.st3{fill:#FFFFFF;}
	.st4{opacity:0.33;fill:url(#SVGID_00000063601622830528841090000006633493613994461345_);enable-background:new    ;}
	.st5{opacity:0.33;fill:url(#SVGID_00000012439900999878552970000002609445557368308357_);enable-background:new    ;}
	.st6{fill:url(#SVGID_00000093171979154978563370000015639988546461941408_);}
</style>
<g>
	<defs>
		<rect id="SVGID_1_" x="113.1" y="336.6" width="1054" height="351.2"/>
	</defs>
	<clipPath id="SVGID_00000149373443441255833490000010492883893726684048_">
		<use xlink:href="#SVGID_1_"  style="overflow:visible;"/>
	</clipPath>
	<g style="clip-path:url(#SVGID_00000149373443441255833490000010492883893726684048_);">
		<path class="st1" d="M187,375.3c5.2,2.2,9.4,5.6,12.8,10.1c2.8,3.9,4.5,7.8,5.2,11.9c0.6,4.1,0.9,10.7,0.9,19.9v60.6h-27.5v-62.7
			c0-5.6-0.9-10-2.8-13.4c-2.4-4.8-7.1-7.2-13.9-7.2c-6.8,0-12.4,2.4-16.1,7.1c-3.7,4.8-5.5,11.6-5.5,20.4v55.9h-27V337.1h27v46.4
			c5-4.9,7.5-6.5,12.5-8.5c5.2-2.1,11.5-3,17.2-3C176,372,181.8,373.1,187,375.3L187,375.3z"/>
		<path class="st1" d="M289.3,376.8c7.2,3.2,13.1,8.3,17.8,15.2c4.2,6.1,7,13.2,8.2,21.3c0.7,4.7,1,11.6,0.9,20.5h-75.1
			c0.4,10.3,4,17.6,10.8,21.7c4.1,2.6,9.1,3.9,14.9,3.9c6.1,0,11.1-1.6,15-4.7c2.1-1.7,3.9-4.1,5.5-7.1h27.5
			c-0.7,6.1-4.1,12.3-10,18.6c-9.2,10-22.2,15-38.8,15c-13.7,0-25.8-4.2-36.3-12.7c-10.5-8.5-15.7-22.2-15.7-41.3
			c0-17.9,4.7-31.5,14.2-41.1c9.5-9.5,21.8-14.3,36.9-14.3C274,372,282.1,373.6,289.3,376.8L289.3,376.8z M249,400.1
			c-3.8,3.9-6.2,9.2-7.2,16h46.4c-0.5-7.2-2.9-12.6-7.2-16.3c-4.3-3.7-9.6-5.6-16-5.6C258.2,394.2,252.8,396.2,249,400.1L249,400.1z
			"/>
		<path class="st1" d="M412.6,385.8c8.4,8.9,12.6,21.9,12.6,39.1c0,18.2-4.1,32-12.3,41.5c-8.2,9.5-18.8,14.3-31.7,14.3
			c-8.3,0-15.1-2-20.6-6.1c-3-2.3-5.9-5.6-8.8-9.9v51h-26.7V374.8H351V390c2.9-4.5,6-8,9.3-10.6c6-4.6,13.2-6.9,21.5-6.9
			C393.9,372.5,404.2,376.9,412.6,385.8L412.6,385.8z M391.9,405.2c-3.7-6.1-9.6-9.2-17.8-9.2c-9.9,0-16.7,4.6-20.4,13.9
			c-1.9,4.9-2.9,11.2-2.9,18.7c0,12,3.2,20.4,9.6,25.2c3.8,2.8,8.3,4.3,13.6,4.3c7.6,0,13.4-2.9,17.3-8.7c4-5.8,6-13.5,6-23.2
			C397.4,418.4,395.6,411.3,391.9,405.2L391.9,405.2z"/>
		<path class="st1" d="M457.6,444.9c0.6,4.8,1.8,8.2,3.7,10.2c3.4,3.6,9.6,5.4,18.6,5.4c5.3,0,9.5-0.8,12.7-2.4
			c3.1-1.6,4.7-3.9,4.7-7.1s-1.3-5.3-3.8-6.9c-2.5-1.6-11.9-4.3-28.2-8.1c-11.7-2.9-20-6.5-24.8-10.9c-4.8-4.3-7.2-10.5-7.2-18.5
			c0-9.5,3.7-17.7,11.2-24.5c7.5-6.8,18-10.3,31.6-10.3c12.9,0,23.4,2.6,31.5,7.7c8.1,5.1,12.8,14,14,26.6h-27
			c-0.4-3.5-1.4-6.2-2.9-8.2c-3-3.7-8-5.5-15.2-5.5c-5.9,0-10.1,0.9-12.6,2.7c-2.5,1.8-3.7,4-3.7,6.4c0,3.1,1.3,5.3,4,6.7
			c2.7,1.4,12,3.9,28.1,7.5c10.7,2.5,18.8,6.3,24.1,11.4c5.3,5.2,7.9,11.6,7.9,19.4c0,10.2-3.8,18.5-11.4,25
			c-7.6,6.5-19.4,9.7-35.3,9.7c-15.9,0-28.2-3.4-36-10.3c-7.7-6.8-11.6-15.5-11.6-26.1L457.6,444.9L457.6,444.9z"/>
		<path class="st1" d="M535.2,374.8h27.3v103.1h-27.3V374.8z"/>
		<path class="st1" d="M665.2,387.1c7.7,9.8,11.6,22.4,11.6,37.8c0,15.4-3.8,29.3-11.4,39.8c-7.6,10.5-18.2,15.8-31.8,15.8
			c-8.6,0-15.4-1.7-20.6-5.1c-3.1-2-6.5-5.5-10.1-10.6v13h-26.6v-141h27v51.3c3.4-4.8,7.2-8.4,11.3-11c4.9-3.2,11.1-4.7,18.7-4.7
			C646.8,372.5,657.5,377.4,665.2,387.1L665.2,387.1z M642.7,449.9c3.9-5.6,5.8-13,5.8-22.1c0-7.3-1-13.4-2.9-18.2
			c-3.6-9.1-10.3-13.6-20-13.6c-9.7,0-16.6,4.4-20.3,13.3c-1.9,4.7-2.9,10.8-2.9,18.3c0,8.8,2,16.1,5.9,21.9c3.9,5.8,9.9,8.7,18,8.7
			C633.4,458.4,638.8,455.5,642.7,449.9z"/>
		<path class="st1" d="M714.8,374.8v62.1c0,5.9,0.7,10.3,2.1,13.2c2.4,5.2,7.2,7.8,14.4,7.8c9.2,0,15.4-3.7,18.8-11.2
			c1.8-4,2.6-9.4,2.6-16v-56.1h27.3v103.1h-26.2v-14.6c-0.3,0.3-0.9,1.3-1.9,2.8c-1,1.6-2.2,3-3.6,4.2c-4.2,3.8-8.3,6.4-12.2,7.8
			c-3.9,1.4-8.5,2.1-13.8,2.1c-15.2,0-25.5-5.5-30.7-16.4c-3-6.1-4.4-15-4.4-26.8v-62.1H714.8L714.8,374.8z"/>
		<path class="st1" d="M854.5,372.4c0.3,0,1.1,0.1,2.3,0.1v27.6c-1.7-0.2-3.2-0.3-4.5-0.4c-1.3-0.1-2.4-0.1-3.2-0.1
			c-10.8,0-18.1,3.5-21.8,10.6c-2.1,4-3.1,10.1-3.1,18.3v49.3H797V374.8h25.7v18c4.2-6.9,7.8-11.6,10.9-14.1
			c5-4.2,11.6-6.3,19.7-6.3C853.7,372.3,854.2,372.3,854.5,372.4L854.5,372.4z"/>
		<path class="st1" d="M1024.6,376.4c4.9,2.7,8.8,6.5,11.8,11.4v-51h27.3v141h-26.2v-14.3c-3.8,6.1-8.2,10.6-13.1,13.3
			c-4.9,2.8-11,4.2-18.3,4.2c-12,0-22.2-4.9-30.4-14.6c-8.2-9.7-12.3-22.2-12.3-37.5c0-17.6,4.1-31.4,12.2-41.5
			c8.1-10.1,18.9-15.1,32.5-15.1C1014.2,372.3,1019.7,373.7,1024.6,376.4L1024.6,376.4z M1031.2,449.8c4-5.7,6-13,6-22
			c0-12.6-3.2-21.6-9.5-27c-3.9-3.3-8.4-4.9-13.6-4.9c-7.9,0-13.7,3-17.3,8.9c-3.7,6-5.5,13.4-5.5,22.2c0,9.5,1.9,17.1,5.6,22.8
			c3.8,5.7,9.4,8.6,17.1,8.6C1021.4,458.4,1027.2,455.5,1031.2,449.8L1031.2,449.8z"/>
		<path class="st1" d="M927.4,477.9c0,0,0.2-9.7,0-12.1c-3.7,4-8,7.5-12.9,10.3c-5.8,3.3-12.4,5-19.7,5c-9.4,0-17.1-2.7-23.2-8
			c-6.1-5.3-9.2-12.8-9.2-22.6c0-12.6,4.9-21.8,14.7-27.5c5.4-3.1,13.3-5.3,23.8-6.6l9.2-1.1c5-0.6,8.6-1.4,10.7-2.4
			c3.9-1.6,5.8-4.2,5.8-7.6c0-4.2-1.5-7.1-4.4-8.7c-3-1.6-7.3-2.4-13.1-2.4c-6.4,0-11,1.6-13.7,4.7c-1.9,2.3-3.2,5.5-3.8,9.4h-25.9
			c0.6-9,3.1-16.4,7.6-22.2c7.1-9.1,19.4-13.6,36.8-13.6c11.3,0,21.4,2.2,30.1,6.7c8.8,4.5,13.2,12.9,13.2,25.3v47.2
			c0,3.3,0.1,21.5,0.2,26.1L927.4,477.9L927.4,477.9z M926.6,427.9c-1.7,1.1-3.5,1.9-5.2,2.6c-1.8,0.7-4.2,1.3-7.2,1.8l-6.1,1.1
			c-5.7,1-9.9,2.2-12.4,3.7c-4.2,2.5-6.4,6.3-6.4,11.4c0,4.6,1.3,7.9,3.9,10c2.6,2,5.7,3.1,9.4,3.1c5.9,0,11.3-1.7,16.2-5.1
			c5-3.4,7.5-9.6,7.7-18.6V427.9L926.6,427.9z"/>
		<path class="st1" d="M1141,477.9c0,0,0.2-9.7,0-12.1c-3.7,4-8,7.5-12.9,10.3c-5.8,3.3-12.4,5-19.7,5c-9.4,0-17.1-2.7-23.2-8
			c-6.1-5.3-9.2-12.8-9.2-22.6c0-12.6,4.9-21.8,14.7-27.5c5.4-3.1,13.3-5.3,23.8-6.6l9.2-1.1c5-0.6,8.6-1.4,10.7-2.4
			c3.9-1.6,5.8-4.2,5.8-7.6c0-4.2-1.5-7.1-4.4-8.7c-3-1.6-7.3-2.4-13.1-2.4c-6.4,0-11,1.6-13.7,4.7c-1.9,2.3-3.2,5.5-3.8,9.4h-25.9
			c0.6-9,3.1-16.4,7.6-22.2c7.1-9.1,19.4-13.6,36.8-13.6c11.3,0,21.4,2.2,30.1,6.7c8.8,4.5,13.2,12.9,13.2,25.3v47.2
			c0,3.3,0.1,21.5,0.2,26.1L1141,477.9L1141,477.9z M1140.1,427.9c-1.7,1.1-3.5,1.9-5.2,2.6s-4.2,1.3-7.2,1.8l-6.1,1.1
			c-5.7,1-9.9,2.2-12.4,3.7c-4.2,2.5-6.4,6.3-6.4,11.4c0,4.6,1.3,7.9,3.9,10c2.6,2,5.7,3.1,9.4,3.1c5.9,0,11.3-1.7,16.2-5.1
			c5-3.4,7.5-9.6,7.7-18.6V427.9L1140.1,427.9z"/>
		<path class="st1" d="M548.5,366.3c8.2,0,14.8-6.6,14.8-14.8c0-8.2-6.6-14.8-14.8-14.8c-8.2,0-14.8,6.6-14.8,14.8
			C533.6,359.6,540.3,366.3,548.5,366.3z"/>
		
			<linearGradient id="SVGID_00000000929617264453724540000017617964439492528538_" gradientUnits="userSpaceOnUse" x1="59.2952" y1="691.6957" x2="500.2069" y2="602.6489" gradientTransform="matrix(1 0 0 -1 244 1232)">
			<stop  offset="0" style="stop-color:#F6008E"/>
			<stop  offset="1" style="stop-color:#FF3500"/>
		</linearGradient>
		<path style="fill:url(#SVGID_00000000929617264453724540000017617964439492528538_);" d="M931.9,573.1l4.9,79.9L372,687.8
			l-8.4-136.1l504.2-31.1"/>
		<path class="st3" d="M480.6,595.7c5,5.1,7.7,11.7,8.2,19.9c0.5,8.2-1.3,15.1-5.6,20.7c-4.3,5.7-10,8.7-17.2,9.2
			c-6.1,0.4-11.1-1.4-14.8-5.4l1.7,26.3l-19.9,1.3l-4.8-75.2l19.9-1.3l0.3,4.8c3.2-4.4,7.9-6.9,14-7.3
			C469.5,588.3,475.6,590.6,480.6,595.7z M460,627.5c2.9-0.2,5.1-1.3,6.7-3.3c3.3-4.1,2.9-10.8-0.9-14.4c-1.8-1.8-4.2-2.6-7.1-2.5
			c-2.9,0.2-5.1,1.3-6.8,3.3c-3.2,4.1-2.8,10.7,0.9,14.4C454.7,626.9,457.1,627.7,460,627.5L460,627.5z"/>
		<path class="st3" d="M513.8,597.4c1.6-7.4,7.6-12,15.4-12.5l1.4,21.5c-4.3-0.3-8,0.8-11.1,3.3c-3.1,2.5-4.5,6.1-4.1,11.1l1.3,20
			l-19.9,1.3l-3.4-53.7l19.9-1.3L513.8,597.4z"/>
		<path class="st3" d="M554,618.2c2,3.4,5.7,5,11.3,4.7c3.3-0.2,6.3-1.6,8.9-4l13.7,10.1c-5,6.1-12.4,9.5-22.2,10.2
			c-9.1,0.6-16.7-1.6-22.6-6.5c-5.8-5-9.1-11.6-9.6-19.7c-0.5-8.2,1.7-15.1,6.8-20.9c5.1-5.8,11.7-8.9,20-9.5
			c8.2-0.5,15,1.7,20.6,6.8c5.6,4.9,8.7,11.5,9.2,19.6c0.2,2.4,0,4.7-0.4,7L554,618.2z M570.9,604.3c-1.5-4.2-4.5-6.2-9.1-5.9
			c-4.6,0.3-7.6,2.6-8.9,7L570.9,604.3z"/>
		<path class="st3" d="M678.9,597.5l2.1,32.7l-19.9,1.3l-1.9-30c-0.3-4.1-2.2-6-5.9-5.8c-4.2,0.3-6.2,3.1-5.8,8.4l1.8,28.2
			l-19.9,1.3l-1.9-30c-0.3-4.1-2.2-6-5.9-5.8c-4.2,0.3-6.2,3.1-5.8,8.4l1.8,28.2l-19.9,1.3l-3.4-53.7l19.9-1.3l0.3,5
			c3.3-4.6,8-7.1,14.2-7.5c6.1-0.4,10.8,1.6,13.9,5.8c3.6-4.7,8.6-7.2,15-7.7C670,575.5,677.9,583,678.9,597.5L678.9,597.5z"/>
		<path class="st3" d="M687.2,568.5c-2.3-2.1-3.5-4.6-3.7-7.5c-0.2-2.9,0.7-5.6,2.7-7.8c2.1-2.4,4.6-3.6,7.6-3.8
			c2.9-0.2,5.6,0.7,7.8,2.8c2.4,2,3.6,4.5,3.8,7.4c0.2,2.9-0.7,5.6-2.8,8c-2,2.3-4.5,3.5-7.4,3.7
			C692.3,571.4,689.7,570.5,687.2,568.5L687.2,568.5z M689,629.7l-3.4-53.7l19.9-1.3l3.4,53.7L689,629.7z"/>
		<path class="st3" d="M747.3,572l19.9-1.3l3.4,53.7l-19.9,1.3l-0.3-5.3c-3,4.7-7.6,7.3-14,7.7c-11.7,0.8-20-6.9-21-22.9l-2-31
			l19.9-1.3l1.9,28.9c0.3,4.8,2.7,7.1,7.1,6.8c4.7-0.3,7.1-3.7,6.8-9L747.3,572z"/>
		<path class="st3" d="M860.4,585.9l2.1,32.7l-19.9,1.3l-1.9-30c-0.3-4.1-2.2-6-5.9-5.8c-4.2,0.3-6.2,3.1-5.8,8.4l1.8,28.1
			l-19.9,1.3l-1.9-30c-0.3-4.1-2.2-6-5.9-5.8c-4.2,0.3-6.2,3.1-5.8,8.4l1.8,28.1l-19.9,1.3l-3.4-53.7l19.9-1.3l0.3,5
			c3.3-4.6,8-7.1,14.2-7.5c6.1-0.4,10.8,1.6,13.9,5.8c3.6-4.7,8.6-7.2,15-7.7C851.6,563.8,859.5,571.4,860.4,585.9L860.4,585.9z"/>
		
			<radialGradient id="SVGID_00000090996751114165028010000007516554829835921037_" cx="94.5362" cy="238.0617" r="10.9764" gradientTransform="matrix(5.5109 -0.9044 -9.044131e-02 -0.5511 404.2213 794.7662)" gradientUnits="userSpaceOnUse">
			<stop  offset="0" style="stop-color:#383838"/>
			<stop  offset="8.000000e-02" style="stop-color:#5D5D5D"/>
			<stop  offset="0.19" style="stop-color:#888888"/>
			<stop  offset="0.3" style="stop-color:#ACACAC"/>
			<stop  offset="0.41" style="stop-color:#CACACA"/>
			<stop  offset="0.53" style="stop-color:#E1E1E1"/>
			<stop  offset="0.66" style="stop-color:#F2F2F2"/>
			<stop  offset="0.81" style="stop-color:#FBFBFB"/>
			<stop  offset="1" style="stop-color:#FFFFFF"/>
		</radialGradient>
		<path style="opacity:0.33;fill:url(#SVGID_00000090996751114165028010000007516554829835921037_);enable-background:new    ;" d="
			M947.1,571.9c0.7,4.1,1.4,6.4-39.3,13.1c-40.7,6.7-46.4,6.2-47.1,2.2c-0.7-4.1,3.9-10.2,44.7-16.9
			C946.1,563.5,946.5,567.8,947.1,571.9z"/>
		
			<radialGradient id="SVGID_00000090980539188622515360000009467846518844427437_" cx="97.2621" cy="1504.8306" r="10.9775" gradientTransform="matrix(0.2337 3.7889 1.1144 -6.874540e-02 -828.4137 293.937)" gradientUnits="userSpaceOnUse">
			<stop  offset="0" style="stop-color:#383838"/>
			<stop  offset="8.000000e-02" style="stop-color:#5D5D5D"/>
			<stop  offset="0.19" style="stop-color:#888888"/>
			<stop  offset="0.3" style="stop-color:#ACACAC"/>
			<stop  offset="0.41" style="stop-color:#CACACA"/>
			<stop  offset="0.53" style="stop-color:#E1E1E1"/>
			<stop  offset="0.66" style="stop-color:#F2F2F2"/>
			<stop  offset="0.81" style="stop-color:#FBFBFB"/>
			<stop  offset="1" style="stop-color:#FFFFFF"/>
		</radialGradient>
		<path style="opacity:0.33;fill:url(#SVGID_00000090980539188622515360000009467846518844427437_);enable-background:new    ;" d="
			M874.1,604.4c6.8-0.4,11.1-19.4,9.7-42.4c-1.4-23-8-41.3-14.8-40.9c-6.8,0.4-11.1,19.4-9.7,42.4
			C860.7,586.6,867.4,604.8,874.1,604.4z"/>
		
			<linearGradient id="SVGID_00000003786772823566021620000002076354408803059622_" gradientUnits="userSpaceOnUse" x1="623.007" y1="680.1553" x2="688.5046" y2="678.5088" gradientTransform="matrix(1 0 0 -1 244 1232)">
			<stop  offset="0" style="stop-color:#F1F500"/>
			<stop  offset="9.000000e-02" style="stop-color:#D1F000"/>
			<stop  offset="0.28" style="stop-color:#92E800"/>
			<stop  offset="0.46" style="stop-color:#5EE000"/>
			<stop  offset="0.62" style="stop-color:#35DB00"/>
			<stop  offset="0.77" style="stop-color:#18D700"/>
			<stop  offset="0.91" style="stop-color:#06D400"/>
			<stop  offset="1" style="stop-color:#00D400"/>
		</linearGradient>
		<path style="fill:url(#SVGID_00000003786772823566021620000002076354408803059622_);" d="M867.8,520.6l64.2,52.6l-60.6,10
			L867.8,520.6z"/>
	</g>
</g>
</svg>
