<svg xmlns="http://www.w3.org/2000/svg" width="281.554" height="47.838" viewBox="0 0 281.554 47.838">
    <defs>
        <style>
            .cls-1{fill:#ff6000}
        </style>
    </defs>
    <g id="Group_304" transform="translate(-297.249 -408.246)">
        <path id="Path_55" d="M316.983 419.086a8.077 8.077 0 0 1 3.408 2.7 7.22 7.22 0 0 1 1.383 3.173 39.218 39.218 0 0 1 .252 5.322v16.179h-7.35V429.7a7.431 7.431 0 0 0-.752-3.591 3.77 3.77 0 0 0-3.711-1.921 5.089 5.089 0 0 0-4.3 1.909 8.789 8.789 0 0 0-1.466 5.449v14.918h-7.2V408.88h7.2v12.4a8.41 8.41 0 0 1 3.331-2.272 12.891 12.891 0 0 1 4.591-.81 11.64 11.64 0 0 1 4.614.888z" class="cls-1" transform="translate(0 -0.497)"/>
        <path id="Path_56" d="M442.432 453.407a11.2 11.2 0 0 1 4.757 4.072 13.533 13.533 0 0 1 2.193 5.692 35.153 35.153 0 0 1 .237 5.463h-20.05q.168 4.143 2.879 5.809a7.307 7.307 0 0 0 3.969 1.035 5.591 5.591 0 0 0 5.478-3.157h7.349a8.988 8.988 0 0 1-2.669 4.976q-3.7 4.016-10.357 4.016a15.006 15.006 0 0 1-9.7-3.388q-4.2-3.388-4.2-11.022 0-7.153 3.792-10.97a13.272 13.272 0 0 1 9.845-3.818 15.672 15.672 0 0 1 6.477 1.292zm-10.768 6.218a7.476 7.476 0 0 0-1.918 4.261h12.4a6.005 6.005 0 0 0-1.918-4.35 6.306 6.306 0 0 0-4.269-1.485 5.706 5.706 0 0 0-4.296 1.575z" class="cls-1" transform="translate(-98.109 -34.413)"/>
        <path id="Path_57" d="M583.411 456.262q3.368 3.561 3.368 10.457 0 7.273-3.292 11.087a10.687 10.687 0 0 1-8.478 3.814 8.891 8.891 0 0 1-5.491-1.642 10.6 10.6 0 0 1-2.339-2.652v13.629h-7.122v-37.648h6.895v4.067a11.59 11.59 0 0 1 2.491-2.829 9.192 9.192 0 0 1 5.745-1.844 10.889 10.889 0 0 1 8.223 3.561zm-5.524 5.178a5.122 5.122 0 0 0-4.759-2.45 5.412 5.412 0 0 0-5.435 3.713 13.948 13.948 0 0 0-.766 5q0 4.8 2.575 6.744a5.913 5.913 0 0 0 3.624 1.136 5.268 5.268 0 0 0 4.632-2.324 12.171 12.171 0 0 0 .128-11.82z" class="cls-1" transform="translate(-206.155 -34.871)"/>
        <path id="Path_58" d="M697.611 471.406a4.792 4.792 0 0 0 .99 2.729q1.345 1.439 4.974 1.439a7.61 7.61 0 0 0 3.388-.631 2.115 2.115 0 0 0 .244-3.738q-1.012-.631-7.53-2.172-4.693-1.162-6.612-2.9a6.3 6.3 0 0 1-1.92-4.951 8.576 8.576 0 0 1 3-6.554q3-2.74 8.442-2.741a15.516 15.516 0 0 1 8.413 2.054q3.252 2.059 3.734 7.11h-7.2a4.254 4.254 0 0 0-.785-2.2q-1.191-1.464-4.052-1.465a5.833 5.833 0 0 0-3.356.733 2.108 2.108 0 0 0-1 1.718 1.878 1.878 0 0 0 1.064 1.793 46.042 46.042 0 0 0 7.516 1.995 13.787 13.787 0 0 1 6.448 3.057 6.937 6.937 0 0 1 2.122 5.177 8.359 8.359 0 0 1-3.05 6.681q-3.05 2.588-9.427 2.589-6.5 0-9.6-2.741a8.9 8.9 0 0 1-3.1-6.984z" class="cls-1" transform="translate(-308.329 -34.23)"/>
        <path id="Path_59" d="M820.375 455.513h7.3v27.53h-7.3z" class="cls-1" transform="translate(-410.354 -37.077)"/>
        <path id="Path_60" d="M894.946 421.97a15.82 15.82 0 0 1 3.09 10.1 17.7 17.7 0 0 1-3.047 10.633 11.059 11.059 0 0 1-14.014 2.854 10.965 10.965 0 0 1-2.691-2.829v3.46h-7.1v-37.655h7.2v13.715a10.549 10.549 0 0 1 3.025-2.93 9.035 9.035 0 0 1 4.983-1.263 10.288 10.288 0 0 1 8.554 3.915zm-6.017 16.771a10.2 10.2 0 0 0 1.554-5.91 13.223 13.223 0 0 0-.764-4.85 5.32 5.32 0 0 0-5.348-3.637 5.4 5.4 0 0 0-5.424 3.561 13.264 13.264 0 0 0-.764 4.9 10.2 10.2 0 0 0 1.579 5.859 5.419 5.419 0 0 0 4.813 2.324 4.991 4.991 0 0 0 4.355-2.247z" class="cls-1" transform="translate(-450.213 -0.225)"/>
        <path id="Path_61" d="M1016.081 455.514v16.595a8.727 8.727 0 0 0 .552 3.536q.98 2.1 3.845 2.1a5.024 5.024 0 0 0 5.027-2.981 10.848 10.848 0 0 0 .7-4.268v-14.982h7.3v27.531h-7v-3.89q-.1.126-.5.758a5.025 5.025 0 0 1-.957 1.111 9.987 9.987 0 0 1-3.262 2.071 11.1 11.1 0 0 1-3.689.556q-6.1 0-8.211-4.395a16.849 16.849 0 0 1-1.184-7.147v-16.595z" class="cls-1" transform="translate(-558.086 -37.078)"/>
        <path id="Path_62" d="M1160.044 452.481c.093.009.3.022.619.038v7.376q-.682-.076-1.212-.1c-.353-.017-.64-.026-.859-.026q-4.345 0-5.835 2.829a11 11 0 0 0-.833 4.9v13.159h-7.249v-27.532h6.869v4.8a15.229 15.229 0 0 1 2.9-3.763 7.908 7.908 0 0 1 5.254-1.693c.141-.001.254.004.346.012z" class="cls-1" transform="translate(-664.745 -34.689)"/>
        <path id="Path_63" d="M1367.15 419.1a8.753 8.753 0 0 1 3.157 3.044v-13.611h7.3v37.658h-7v-3.814a10.153 10.153 0 0 1-3.511 3.561 9.855 9.855 0 0 1-4.9 1.111 10.232 10.232 0 0 1-8.12-3.9 14.987 14.987 0 0 1-3.3-10.015q0-7.046 3.246-11.087A10.559 10.559 0 0 1 1362.7 418a8.889 8.889 0 0 1 4.45 1.1zm1.767 19.612a10.037 10.037 0 0 0 1.591-5.884q0-5.051-2.551-7.223a5.492 5.492 0 0 0-3.637-1.313 5.055 5.055 0 0 0-4.634 2.387 12.87 12.87 0 0 0 .025 12.022 5.084 5.084 0 0 0 4.559 2.286 5.313 5.313 0 0 0 4.647-2.272z" class="cls-1" transform="translate(-826.421 -0.225)"/>
        <path id="Path_64" d="M1243.139 481s.051-2.6 0-3.222a14.85 14.85 0 0 1-3.448 2.748 10.423 10.423 0 0 1-5.273 1.335 9.1 9.1 0 0 1-6.2-2.13 7.571 7.571 0 0 1-2.446-6.035q0-5.066 3.935-7.334a17.573 17.573 0 0 1 6.347-1.764l2.463-.3a11.321 11.321 0 0 0 2.869-.63 2.161 2.161 0 0 0 1.549-2.041 2.413 2.413 0 0 0-1.188-2.332 7.5 7.5 0 0 0-3.486-.642 4.577 4.577 0 0 0-3.654 1.26 5.205 5.205 0 0 0-1.022 2.52h-6.931a10.507 10.507 0 0 1 2.025-5.923q2.86-3.628 9.821-3.629a17.524 17.524 0 0 1 8.049 1.789q3.518 1.791 3.518 6.754v12.6c0 .874.017 5.733.051 6.977zm-.227-13.353a7.973 7.973 0 0 1-1.392.692 11.84 11.84 0 0 1-1.929.492l-1.635.3a10.745 10.745 0 0 0-3.3.984 3.279 3.279 0 0 0-1.7 3.05 3.184 3.184 0 0 0 1.037 2.659 3.936 3.936 0 0 0 2.521.819 7.511 7.511 0 0 0 4.338-1.36q1.983-1.362 2.059-4.965z" class="cls-1" transform="translate(-728.36 -35.011)"/>
        <path id="Path_65" d="M1507.751 481s.051-2.6 0-3.222a14.85 14.85 0 0 1-3.448 2.748 10.423 10.423 0 0 1-5.273 1.335 9.094 9.094 0 0 1-6.2-2.13 7.572 7.572 0 0 1-2.446-6.035q0-5.066 3.935-7.334a17.576 17.576 0 0 1 6.347-1.764l2.463-.3a11.317 11.317 0 0 0 2.869-.63 2.161 2.161 0 0 0 1.549-2.041 2.413 2.413 0 0 0-1.188-2.332 7.5 7.5 0 0 0-3.486-.642 4.577 4.577 0 0 0-3.654 1.26 5.207 5.207 0 0 0-1.022 2.52h-6.931a10.509 10.509 0 0 1 2.025-5.923q2.86-3.628 9.821-3.629a17.523 17.523 0 0 1 8.049 1.789q3.518 1.791 3.518 6.754v12.6c0 .874.017 5.733.051 6.977zm-.227-13.353a7.983 7.983 0 0 1-1.392.692 11.841 11.841 0 0 1-1.929.492l-1.635.3a10.747 10.747 0 0 0-3.3.984 3.279 3.279 0 0 0-1.7 3.05 3.184 3.184 0 0 0 1.037 2.659 3.936 3.936 0 0 0 2.521.819 7.511 7.511 0 0 0 4.338-1.36q1.983-1.362 2.059-4.965z" class="cls-1" transform="translate(-935.929 -35.011)"/>
        <circle id="Ellipse_12" cx="3.964" cy="3.964" r="3.964" class="cls-1" transform="translate(409.591 408.246)"/>
    </g>
</svg>
