<svg enable-background="new 0 0 1280 1024" viewBox="0 0 1280 1024" xmlns="http://www.w3.org/2000/svg" xmlns:xlink="http://www.w3.org/1999/xlink"><clipPath id="a"><path d="m113.1 336.6h1054v351.2h-1054z"/></clipPath><linearGradient id="b" gradientTransform="matrix(1 0 0 -1 244 1232)" gradientUnits="userSpaceOnUse" x1="59.2952" x2="500.2069" y1="691.6957" y2="602.6489"><stop offset="0" stop-color="#f6008e"/><stop offset="1" stop-color="#ff3500"/></linearGradient><linearGradient id="c"><stop offset="0" stop-color="#383838"/><stop offset=".08" stop-color="#5d5d5d"/><stop offset=".19" stop-color="#888"/><stop offset=".3" stop-color="#acacac"/><stop offset=".41" stop-color="#cacaca"/><stop offset=".53" stop-color="#e1e1e1"/><stop offset=".66" stop-color="#f2f2f2"/><stop offset=".81" stop-color="#fbfbfb"/><stop offset="1" stop-color="#fff"/></linearGradient><radialGradient id="d" cx="94.5362" cy="238.0617" gradientTransform="matrix(5.5109 -.9044 -.09044131 -.5511 404.2213 794.7662)" gradientUnits="userSpaceOnUse" r="10.9764" xlink:href="#c"/><radialGradient id="e" cx="97.2621" cy="1504.8306" gradientTransform="matrix(.2337 3.7889 1.1144 -.0687454 -828.4137 293.937)" gradientUnits="userSpaceOnUse" r="10.9775" xlink:href="#c"/><linearGradient id="f" gradientTransform="matrix(1 0 0 -1 244 1232)" gradientUnits="userSpaceOnUse" x1="623.007" x2="688.5046" y1="680.1553" y2="678.5088"><stop offset="0" stop-color="#f1f500"/><stop offset=".09" stop-color="#d1f000"/><stop offset=".28" stop-color="#92e800"/><stop offset=".46" stop-color="#5ee000"/><stop offset=".62" stop-color="#35db00"/><stop offset=".77" stop-color="#18d700"/><stop offset=".91" stop-color="#06d400"/><stop offset="1" stop-color="#00d400"/></linearGradient><g clip-path="url(#a)"><g fill="#ff6000"><path d="m187 375.3c5.2 2.2 9.4 5.6 12.8 10.1 2.8 3.9 4.5 7.8 5.2 11.9.6 4.1.9 10.7.9 19.9v60.6h-27.5v-62.7c0-5.6-.9-10-2.8-13.4-2.4-4.8-7.1-7.2-13.9-7.2s-12.4 2.4-16.1 7.1c-3.7 4.8-5.5 11.6-5.5 20.4v55.9h-27v-140.8h27v46.4c5-4.9 7.5-6.5 12.5-8.5 5.2-2.1 11.5-3 17.2-3 6.2 0 12 1.1 17.2 3.3z"/><path d="m289.3 376.8c7.2 3.2 13.1 8.3 17.8 15.2 4.2 6.1 7 13.2 8.2 21.3.7 4.7 1 11.6.9 20.5h-75.1c.4 10.3 4 17.6 10.8 21.7 4.1 2.6 9.1 3.9 14.9 3.9 6.1 0 11.1-1.6 15-4.7 2.1-1.7 3.9-4.1 5.5-7.1h27.5c-.7 6.1-4.1 12.3-10 18.6-9.2 10-22.2 15-38.8 15-13.7 0-25.8-4.2-36.3-12.7s-15.7-22.2-15.7-41.3c0-17.9 4.7-31.5 14.2-41.1 9.5-9.5 21.8-14.3 36.9-14.3 8.9.2 17 1.8 24.2 5zm-40.3 23.3c-3.8 3.9-6.2 9.2-7.2 16h46.4c-.5-7.2-2.9-12.6-7.2-16.3s-9.6-5.6-16-5.6c-6.8 0-12.2 2-16 5.9z"/><path d="m412.6 385.8c8.4 8.9 12.6 21.9 12.6 39.1 0 18.2-4.1 32-12.3 41.5s-18.8 14.3-31.7 14.3c-8.3 0-15.1-2-20.6-6.1-3-2.3-5.9-5.6-8.8-9.9v51h-26.7v-140.9h25.9v15.2c2.9-4.5 6-8 9.3-10.6 6-4.6 13.2-6.9 21.5-6.9 12.1 0 22.4 4.4 30.8 13.3zm-20.7 19.4c-3.7-6.1-9.6-9.2-17.8-9.2-9.9 0-16.7 4.6-20.4 13.9-1.9 4.9-2.9 11.2-2.9 18.7 0 12 3.2 20.4 9.6 25.2 3.8 2.8 8.3 4.3 13.6 4.3 7.6 0 13.4-2.9 17.3-8.7 4-5.8 6-13.5 6-23.2.1-7.8-1.7-14.9-5.4-21z"/><path d="m457.6 444.9c.6 4.8 1.8 8.2 3.7 10.2 3.4 3.6 9.6 5.4 18.6 5.4 5.3 0 9.5-.8 12.7-2.4 3.1-1.6 4.7-3.9 4.7-7.1s-1.3-5.3-3.8-6.9-11.9-4.3-28.2-8.1c-11.7-2.9-20-6.5-24.8-10.9-4.8-4.3-7.2-10.5-7.2-18.5 0-9.5 3.7-17.7 11.2-24.5s18-10.3 31.6-10.3c12.9 0 23.4 2.6 31.5 7.7s12.8 14 14 26.6h-27c-.4-3.5-1.4-6.2-2.9-8.2-3-3.7-8-5.5-15.2-5.5-5.9 0-10.1.9-12.6 2.7s-3.7 4-3.7 6.4c0 3.1 1.3 5.3 4 6.7s12 3.9 28.1 7.5c10.7 2.5 18.8 6.3 24.1 11.4 5.3 5.2 7.9 11.6 7.9 19.4 0 10.2-3.8 18.5-11.4 25s-19.4 9.7-35.3 9.7-28.2-3.4-36-10.3c-7.7-6.8-11.6-15.5-11.6-26.1z"/><path d="m535.2 374.8h27.3v103.1h-27.3z"/><path d="m665.2 387.1c7.7 9.8 11.6 22.4 11.6 37.8s-3.8 29.3-11.4 39.8-18.2 15.8-31.8 15.8c-8.6 0-15.4-1.7-20.6-5.1-3.1-2-6.5-5.5-10.1-10.6v13h-26.6v-141h27v51.3c3.4-4.8 7.2-8.4 11.3-11 4.9-3.2 11.1-4.7 18.7-4.7 13.5.1 24.2 5 31.9 14.7zm-22.5 62.8c3.9-5.6 5.8-13 5.8-22.1 0-7.3-1-13.4-2.9-18.2-3.6-9.1-10.3-13.6-20-13.6s-16.6 4.4-20.3 13.3c-1.9 4.7-2.9 10.8-2.9 18.3 0 8.8 2 16.1 5.9 21.9s9.9 8.7 18 8.7c7.1.2 12.5-2.7 16.4-8.3z"/><path d="m714.8 374.8v62.1c0 5.9.7 10.3 2.1 13.2 2.4 5.2 7.2 7.8 14.4 7.8 9.2 0 15.4-3.7 18.8-11.2 1.8-4 2.6-9.4 2.6-16v-56.1h27.3v103.1h-26.2v-14.6c-.3.3-.9 1.3-1.9 2.8-1 1.6-2.2 3-3.6 4.2-4.2 3.8-8.3 6.4-12.2 7.8s-8.5 2.1-13.8 2.1c-15.2 0-25.5-5.5-30.7-16.4-3-6.1-4.4-15-4.4-26.8v-62.1h27.6z"/><path d="m854.5 372.4c.3 0 1.1.1 2.3.1v27.6c-1.7-.2-3.2-.3-4.5-.4s-2.4-.1-3.2-.1c-10.8 0-18.1 3.5-21.8 10.6-2.1 4-3.1 10.1-3.1 18.3v49.3h-27.2v-103h25.7v18c4.2-6.9 7.8-11.6 10.9-14.1 5-4.2 11.6-6.3 19.7-6.3.4-.1.9-.1 1.2 0z"/><path d="m1024.6 376.4c4.9 2.7 8.8 6.5 11.8 11.4v-51h27.3v141h-26.2v-14.3c-3.8 6.1-8.2 10.6-13.1 13.3-4.9 2.8-11 4.2-18.3 4.2-12 0-22.2-4.9-30.4-14.6s-12.3-22.2-12.3-37.5c0-17.6 4.1-31.4 12.2-41.5s18.9-15.1 32.5-15.1c6.1 0 11.6 1.4 16.5 4.1zm6.6 73.4c4-5.7 6-13 6-22 0-12.6-3.2-21.6-9.5-27-3.9-3.3-8.4-4.9-13.6-4.9-7.9 0-13.7 3-17.3 8.9-3.7 6-5.5 13.4-5.5 22.2 0 9.5 1.9 17.1 5.6 22.8 3.8 5.7 9.4 8.6 17.1 8.6 7.4 0 13.2-2.9 17.2-8.6z"/><path d="m927.4 477.9s.2-9.7 0-12.1c-3.7 4-8 7.5-12.9 10.3-5.8 3.3-12.4 5-19.7 5-9.4 0-17.1-2.7-23.2-8s-9.2-12.8-9.2-22.6c0-12.6 4.9-21.8 14.7-27.5 5.4-3.1 13.3-5.3 23.8-6.6l9.2-1.1c5-.6 8.6-1.4 10.7-2.4 3.9-1.6 5.8-4.2 5.8-7.6 0-4.2-1.5-7.1-4.4-8.7-3-1.6-7.3-2.4-13.1-2.4-6.4 0-11 1.6-13.7 4.7-1.9 2.3-3.2 5.5-3.8 9.4h-25.9c.6-9 3.1-16.4 7.6-22.2 7.1-9.1 19.4-13.6 36.8-13.6 11.3 0 21.4 2.2 30.1 6.7 8.8 4.5 13.2 12.9 13.2 25.3v47.2c0 3.3.1 21.5.2 26.1zm-.8-50c-1.7 1.1-3.5 1.9-5.2 2.6-1.8.7-4.2 1.3-7.2 1.8l-6.1 1.1c-5.7 1-9.9 2.2-12.4 3.7-4.2 2.5-6.4 6.3-6.4 11.4 0 4.6 1.3 7.9 3.9 10 2.6 2 5.7 3.1 9.4 3.1 5.9 0 11.3-1.7 16.2-5.1 5-3.4 7.5-9.6 7.7-18.6v-10z"/><path d="m1141 477.9s.2-9.7 0-12.1c-3.7 4-8 7.5-12.9 10.3-5.8 3.3-12.4 5-19.7 5-9.4 0-17.1-2.7-23.2-8s-9.2-12.8-9.2-22.6c0-12.6 4.9-21.8 14.7-27.5 5.4-3.1 13.3-5.3 23.8-6.6l9.2-1.1c5-.6 8.6-1.4 10.7-2.4 3.9-1.6 5.8-4.2 5.8-7.6 0-4.2-1.5-7.1-4.4-8.7-3-1.6-7.3-2.4-13.1-2.4-6.4 0-11 1.6-13.7 4.7-1.9 2.3-3.2 5.5-3.8 9.4h-25.9c.6-9 3.1-16.4 7.6-22.2 7.1-9.1 19.4-13.6 36.8-13.6 11.3 0 21.4 2.2 30.1 6.7 8.8 4.5 13.2 12.9 13.2 25.3v47.2c0 3.3.1 21.5.2 26.1zm-.9-50c-1.7 1.1-3.5 1.9-5.2 2.6s-4.2 1.3-7.2 1.8l-6.1 1.1c-5.7 1-9.9 2.2-12.4 3.7-4.2 2.5-6.4 6.3-6.4 11.4 0 4.6 1.3 7.9 3.9 10 2.6 2 5.7 3.1 9.4 3.1 5.9 0 11.3-1.7 16.2-5.1 5-3.4 7.5-9.6 7.7-18.6v-10z"/><path d="m548.5 366.3c8.2 0 14.8-6.6 14.8-14.8s-6.6-14.8-14.8-14.8-14.8 6.6-14.8 14.8c-.1 8.1 6.6 14.8 14.8 14.8z"/></g><path d="m931.9 573.1 4.9 79.9-564.8 34.8-8.4-136.1 504.2-31.1" fill="url(#b)"/><path d="m480.6 595.7c5 5.1 7.7 11.7 8.2 19.9s-1.3 15.1-5.6 20.7c-4.3 5.7-10 8.7-17.2 9.2-6.1.4-11.1-1.4-14.8-5.4l1.7 26.3-19.9 1.3-4.8-75.2 19.9-1.3.3 4.8c3.2-4.4 7.9-6.9 14-7.3 7.1-.4 13.2 1.9 18.2 7zm-20.6 31.8c2.9-.2 5.1-1.3 6.7-3.3 3.3-4.1 2.9-10.8-.9-14.4-1.8-1.8-4.2-2.6-7.1-2.5-2.9.2-5.1 1.3-6.8 3.3-3.2 4.1-2.8 10.7.9 14.4 1.9 1.9 4.3 2.7 7.2 2.5z" fill="#fff"/><path d="m513.8 597.4c1.6-7.4 7.6-12 15.4-12.5l1.4 21.5c-4.3-.3-8 .8-11.1 3.3s-4.5 6.1-4.1 11.1l1.3 20-19.9 1.3-3.4-53.7 19.9-1.3z" fill="#fff"/><path d="m554 618.2c2 3.4 5.7 5 11.3 4.7 3.3-.2 6.3-1.6 8.9-4l13.7 10.1c-5 6.1-12.4 9.5-22.2 10.2-9.1.6-16.7-1.6-22.6-6.5-5.8-5-9.1-11.6-9.6-19.7-.5-8.2 1.7-15.1 6.8-20.9s11.7-8.9 20-9.5c8.2-.5 15 1.7 20.6 6.8 5.6 4.9 8.7 11.5 9.2 19.6.2 2.4 0 4.7-.4 7zm16.9-13.9c-1.5-4.2-4.5-6.2-9.1-5.9s-7.6 2.6-8.9 7z" fill="#fff"/><path d="m678.9 597.5 2.1 32.7-19.9 1.3-1.9-30c-.3-4.1-2.2-6-5.9-5.8-4.2.3-6.2 3.1-5.8 8.4l1.8 28.2-19.9 1.3-1.9-30c-.3-4.1-2.2-6-5.9-5.8-4.2.3-6.2 3.1-5.8 8.4l1.8 28.2-19.9 1.3-3.4-53.7 19.9-1.3.3 5c3.3-4.6 8-7.1 14.2-7.5 6.1-.4 10.8 1.6 13.9 5.8 3.6-4.7 8.6-7.2 15-7.7 12.4-.8 20.3 6.7 21.3 21.2z" fill="#fff"/><path d="m687.2 568.5c-2.3-2.1-3.5-4.6-3.7-7.5s.7-5.6 2.7-7.8c2.1-2.4 4.6-3.6 7.6-3.8 2.9-.2 5.6.7 7.8 2.8 2.4 2 3.6 4.5 3.8 7.4s-.7 5.6-2.8 8c-2 2.3-4.5 3.5-7.4 3.7-2.9.1-5.5-.8-8-2.8zm1.8 61.2-3.4-53.7 19.9-1.3 3.4 53.7z" fill="#fff"/><path d="m747.3 572 19.9-1.3 3.4 53.7-19.9 1.3-.3-5.3c-3 4.7-7.6 7.3-14 7.7-11.7.8-20-6.9-21-22.9l-2-31 19.9-1.3 1.9 28.9c.3 4.8 2.7 7.1 7.1 6.8 4.7-.3 7.1-3.7 6.8-9z" fill="#fff"/><path d="m860.4 585.9 2.1 32.7-19.9 1.3-1.9-30c-.3-4.1-2.2-6-5.9-5.8-4.2.3-6.2 3.1-5.8 8.4l1.8 28.1-19.9 1.3-1.9-30c-.3-4.1-2.2-6-5.9-5.8-4.2.3-6.2 3.1-5.8 8.4l1.8 28.1-19.9 1.3-3.4-53.7 19.9-1.3.3 5c3.3-4.6 8-7.1 14.2-7.5 6.1-.4 10.8 1.6 13.9 5.8 3.6-4.7 8.6-7.2 15-7.7 12.5-.7 20.4 6.9 21.3 21.4z" fill="#fff"/><path d="m947.1 571.9c.7 4.1 1.4 6.4-39.3 13.1s-46.4 6.2-47.1 2.2c-.7-4.1 3.9-10.2 44.7-16.9 40.7-6.8 41.1-2.5 41.7 1.6z" fill="url(#d)" opacity=".33"/><path d="m874.1 604.4c6.8-.4 11.1-19.4 9.7-42.4s-8-41.3-14.8-40.9-11.1 19.4-9.7 42.4c1.4 23.1 8.1 41.3 14.8 40.9z" fill="url(#e)" opacity=".33"/><path d="m867.8 520.6 64.2 52.6-60.6 10z" fill="url(#f)"/></g></svg>