<?xml version="1.0" encoding="UTF-8"?>
<svg xmlns="http://www.w3.org/2000/svg" width="118" height="119" viewBox="-1 -1 118 119" x="520" y="696"><g fill="none" fill-rule="evenodd"><path d="M95 97.145V85.68c0-1.52-1.246-2.757-2.78-2.757-1.532 0-2.779 1.236-2.779 2.757v2.547a2.345 2.345 0 0 1-2.354 2.336 2.345 2.345 0 0 1-2.354-2.336v-7.641c0-1.521-1.247-2.758-2.78-2.758-1.531 0-2.778 1.238-2.778 2.758v5.094a2.345 2.345 0 0 1-2.354 2.336 2.345 2.345 0 0 1-2.354-2.336V75.493c0-1.521-1.246-2.758-2.779-2.758s-2.78 1.238-2.78 2.758v10.186a2.345 2.345 0 0 1-2.353 2.336 2.345 2.345 0 0 1-2.354-2.336V62.76c0-1.522-1.248-2.759-2.78-2.759-1.532 0-2.778 1.238-2.778 2.758v34.033c0 .944-.574 1.796-1.454 2.157a2.367 2.367 0 0 1-2.565-.506l-6.881-6.829a2.782 2.782 0 0 0-1.965-.806 2.78 2.78 0 0 0-1.966.806 2.747 2.747 0 0 0 0 3.9l17.841 17.705c.682.688 1.405 1.32 2.165 1.892A54.31 54.31 0 0 1 54 116C24.177 116 0 91.823 0 62S24.177 8 54 8s54 24.177 54 54c0 13.422-4.897 25.7-13 35.145z" fill="#FFF2EA"/><path d="M50.064 107.371a1.5 1.5 0 1 1-.568 2.946C25.012 105.599 6.46 84.972 4.7 59.777 2.564 29.25 25.622 2.77 56.199.634c30.575-2.138 57.095 20.875 59.23 51.4a55.096 55.096 0 0 1-7.623 32.125 1.5 1.5 0 0 1-2.578-1.536 52.098 52.098 0 0 0 7.208-30.378c-2.02-28.873-27.104-50.64-56.028-48.619C27.483 5.648 5.672 30.695 7.69 59.568c1.667 23.83 19.215 43.34 42.373 47.803z" fill="#FF6000"/><path d="M53.02 66.597a1.5 1.5 0 0 1-1.727 2.454c-3.849-2.71-6.309-6.956-6.64-11.7-.607-8.677 6.054-16.201 14.863-16.816 8.809-.617 16.453 5.907 17.06 14.583.102 1.458-.001 2.923-.308 4.351a1.5 1.5 0 1 1-2.934-.63c.248-1.152.332-2.334.249-3.51-.49-7.013-6.69-12.303-13.857-11.802-7.169.501-12.57 6.603-12.08 13.615.267 3.83 2.253 7.259 5.373 9.455zM38.685 23.723a1.5 1.5 0 1 1 2.628-1.446l7.783 14.157a1.5 1.5 0 1 1-2.628 1.446l-7.783-14.157zM32.29 44.322a1.5 1.5 0 0 1 1.418-2.644l7.05 3.78a1.5 1.5 0 0 1-1.418 2.644l-7.05-3.78zm29.521-10.318a1.5 1.5 0 1 1-2.984-.304l1.088-10.715a1.5 1.5 0 1 1 2.984.304l-1.088 10.715z" fill="#FF6000"/><path d="M97 80.68c0-1.52-1.245-2.757-2.779-2.757-1.535 0-2.78 1.237-2.78 2.757v2.563a2.345 2.345 0 0 1-2.354 2.32 2.345 2.345 0 0 1-2.353-2.337v-7.64c0-1.52-1.246-2.758-2.78-2.758-1.534 0-2.779 1.238-2.779 2.758v5.11a2.345 2.345 0 0 1-2.354 2.32 2.345 2.345 0 0 1-2.353-2.336V70.493c0-1.52-1.246-2.758-2.78-2.758-1.534 0-2.779 1.238-2.779 2.758v10.203a2.345 2.345 0 0 1-2.354 2.32 2.345 2.345 0 0 1-2.354-2.336V57.758c0-1.52-1.246-2.758-2.78-2.758-1.533 0-2.778 1.239-2.778 2.758v34.044a2.333 2.333 0 0 1-1.452 2.146 2.37 2.37 0 0 1-2.567-.505l-6.88-6.83a2.784 2.784 0 0 0-1.97-.805 2.78 2.78 0 0 0-1.962.805 2.747 2.747 0 0 0 0 3.9l17.83 17.694.008.007.013.014c3.681 3.72 8.612 5.772 13.875 5.772 9.908 0 18.237-7.41 19.337-17.129l.125-1.11V80.68zM77.538 117c-6.063 0-11.762-2.372-16.002-6.656l-.008-.008-.003-.003L43.7 92.643a5.747 5.747 0 0 1 0-8.16 5.776 5.776 0 0 1 4.075-1.675 5.78 5.78 0 0 1 4.08 1.675l5.788 5.744V57.758c0-3.18 2.592-5.758 5.778-5.758 3.187 0 5.78 2.577 5.78 5.758v9.107a5.778 5.778 0 0 1 4.487-2.13c3.187 0 5.78 2.577 5.78 5.758v1.464a5.778 5.778 0 0 1 4.486-2.129c3.186 0 5.78 2.578 5.78 5.758v1.466a5.78 5.78 0 0 1 4.487-2.129c3.186 0 5.779 2.577 5.779 5.757v17.86h-.336C97.814 109.116 88.514 117 77.538 117z" fill="#FF6000"/></g></svg>