<?xml version="1.0" encoding="UTF-8"?>
<svg xmlns="http://www.w3.org/2000/svg" width="127" height="120" viewBox="-1 -1 127 120" x="272" y="696"><g fill="none" fill-rule="evenodd"><circle fill="#FFF2EA" cx="59" cy="59" r="59"/><path d="M98.316 10.268a1.5 1.5 0 0 1 1.717-2.46c21.363 14.907 30.304 42.479 21.28 67.273-10.935 30.043-44.194 45.518-74.287 34.565C16.934 98.694 1.403 65.46 12.338 35.417c4.08-11.211 11.383-20.677 20.925-27.42a1.5 1.5 0 1 1 1.731 2.45C25.948 16.84 19.027 25.81 15.157 36.443c-10.368 28.486 4.36 59.998 32.896 70.384 28.536 10.387 60.073-4.287 70.441-32.772 8.556-23.508.077-49.653-20.178-63.787z" fill="#FF6000"/><path d="M42 32h2v2h-2v-2zm2 0h2v2h-2v-2zm2 0h2v2h-2v-2zm2 0h2v2h-2v-2zm2 0h2v2h-2v-2zm2 0h2v2h-2v-2zm2 0h2v2h-2v-2zm4 0h2v2h-2v-2zm4 0h2v2h-2v-2zm4 0h2v2h-2v-2zm2 0h2v2h-2v-2zm6 0h2v2h-2v-2zm4 0h2v2h-2v-2zm2 0h2v2h-2v-2zm2 0h2v2h-2v-2zm2 0h2v2h-2v-2zm2 0h2v2h-2v-2zm2 0h2v2h-2v-2zm2 0h2v2h-2v-2zm-48 2h2v2h-2v-2zm12 0h2v2h-2v-2zm6 0h2v2h-2v-2zm2 0h2v2h-2v-2zm2 0h2v2h-2v-2zm2 0h2v2h-2v-2zm4 0h2v2h-2v-2zm8 0h2v2h-2v-2zm12 0h2v2h-2v-2zm-48 2h2v2h-2v-2zm4 0h2v2h-2v-2zm2 0h2v2h-2v-2zm2 0h2v2h-2v-2zm4 0h2v2h-2v-2zm4 0h2v2h-2v-2zm2 0h2v2h-2v-2zm2 0h2v2h-2v-2zm6 0h2v2h-2v-2zm2 0h2v2h-2v-2zm8 0h2v2h-2v-2zm4 0h2v2h-2v-2zm2 0h2v2h-2v-2zm2 0h2v2h-2v-2zm4 0h2v2h-2v-2zm-48 2h2v2h-2v-2zm4 0h2v2h-2v-2zm2 0h2v2h-2v-2zm2 0h2v2h-2v-2zm4 0h2v2h-2v-2zm4 0h2v2h-2v-2zm2 0h2v2h-2v-2zm2 0h2v2h-2v-2zm4 0h2v2h-2v-2zm2 0h2v2h-2v-2zm2 0h2v2h-2v-2zm2 0h2v2h-2v-2zm6 0h2v2h-2v-2zm4 0h2v2h-2v-2zm2 0h2v2h-2v-2zm2 0h2v2h-2v-2zm4 0h2v2h-2v-2zm-48 2h2v2h-2v-2zm4 0h2v2h-2v-2zm2 0h2v2h-2v-2zm2 0h2v2h-2v-2zm4 0h2v2h-2v-2zm4 0h2v2h-2v-2zm6 0h2v2h-2v-2zm2 0h2v2h-2v-2zm6 0h2v2h-2v-2zm2 0h2v2h-2v-2zm4 0h2v2h-2v-2zm4 0h2v2h-2v-2zm2 0h2v2h-2v-2zm2 0h2v2h-2v-2zm4 0h2v2h-2v-2zm-48 2h2v2h-2v-2zm12 0h2v2h-2v-2zm8 0h2v2h-2v-2zm2 0h2v2h-2v-2zm10 0h2v2h-2v-2zm4 0h2v2h-2v-2zm12 0h2v2h-2v-2zm-48 2h2v2h-2v-2zm2 0h2v2h-2v-2zm2 0h2v2h-2v-2zm2 0h2v2h-2v-2zm2 0h2v2h-2v-2zm2 0h2v2h-2v-2zm2 0h2v2h-2v-2zm4 0h2v2h-2v-2zm4 0h2v2h-2v-2zm4 0h2v2h-2v-2zm4 0h2v2h-2v-2zm4 0h2v2h-2v-2zm4 0h2v2h-2v-2zm2 0h2v2h-2v-2zm2 0h2v2h-2v-2zm2 0h2v2h-2v-2zm2 0h2v2h-2v-2zm2 0h2v2h-2v-2zm2 0h2v2h-2v-2zm-28 2h2v2h-2v-2zm4 0h2v2h-2v-2zm4 0h2v2h-2v-2zm2 0h2v2h-2v-2zm2 0h2v2h-2v-2zm-32 2h2v2h-2v-2zm2 0h2v2h-2v-2zm2 0h2v2h-2v-2zm2 0h2v2h-2v-2zm6 0h2v2h-2v-2zm4 0h2v2h-2v-2zm4 0h2v2h-2v-2zm2 0h2v2h-2v-2zm2 0h2v2h-2v-2zm2 0h2v2h-2v-2zm4 0h2v2h-2v-2zm2 0h2v2h-2v-2zm2 0h2v2h-2v-2zm6 0h2v2h-2v-2zm2 0h2v2h-2v-2zm2 0h2v2h-2v-2zm4 0h2v2h-2v-2zm-46 2h2v2h-2v-2zm6 0h2v2h-2v-2zm12 0h2v2h-2v-2zm4 0h2v2h-2v-2zm2 0h2v2h-2v-2zm6 0h2v2h-2v-2zm2 0h2v2h-2v-2zm4 0h2v2h-2v-2zm8 0h2v2h-2v-2zm-46 2h2v2h-2v-2zm2 0h2v2h-2v-2zm6 0h2v2h-2v-2zm2 0h2v2h-2v-2zm2 0h2v2h-2v-2zm2 0h2v2h-2v-2zm4 0h2v2h-2v-2zm2 0h2v2h-2v-2zm2 0h2v2h-2v-2zm2 0h2v2h-2v-2zm2 0h2v2h-2v-2zm6 0h2v2h-2v-2zm2 0h2v2h-2v-2zm6 0h2v2h-2v-2zm-36 2h2v2h-2v-2zm2 0h2v2h-2v-2zm2 0h2v2h-2v-2zm10 0h2v2h-2v-2zm2 0h2v2h-2v-2zm12 0h2v2h-2v-2zm2 0h2v2h-2v-2zm2 0h2v2h-2v-2zm2 0h2v2h-2v-2zm4 0h2v2h-2v-2zm2 0h2v2h-2v-2zm-44 2h2v2h-2v-2zm4 0h2v2h-2v-2zm6 0h2v2h-2v-2zm2 0h2v2h-2v-2zm4 0h2v2h-2v-2zm2 0h2v2h-2v-2zm2 0h2v2h-2v-2zm4 0h2v2h-2v-2zm4 0h2v2h-2v-2zm8 0h2v2h-2v-2zm2 0h2v2h-2v-2zm2 0h2v2h-2v-2zm4 0h2v2h-2v-2zm2 0h2v2h-2v-2zm2 0h2v2h-2v-2zm-42 2h2v2h-2v-2zm4 0h2v2h-2v-2zm6 0h2v2h-2v-2zm6 0h2v2h-2v-2zm2 0h2v2h-2v-2zm4 0h2v2h-2v-2zm2 0h2v2h-2v-2zm2 0h2v2h-2v-2zm2 0h2v2h-2v-2zm2 0h2v2h-2v-2zm2 0h2v2h-2v-2zm2 0h2v2h-2v-2zm8 0h2v2h-2v-2zm-46 2h2v2h-2v-2zm4 0h2v2h-2v-2zm2 0h2v2h-2v-2zm2 0h2v2h-2v-2zm2 0h2v2h-2v-2zm6 0h2v2h-2v-2zm4 0h2v2h-2v-2zm4 0h2v2h-2v-2zm8 0h2v2h-2v-2zm2 0h2v2h-2v-2zm2 0h2v2h-2v-2zm6 0h2v2h-2v-2zm2 0h2v2h-2v-2zm-46 2h2v2h-2v-2zm4 0h2v2h-2v-2zm4 0h2v2h-2v-2zm8 0h2v2h-2v-2zm6 0h2v2h-2v-2zm6 0h2v2h-2v-2zm4 0h2v2h-2v-2zm8 0h2v2h-2v-2zm2 0h2v2h-2v-2zm6 0h2v2h-2v-2zm-40 2h2v2h-2v-2zm2 0h2v2h-2v-2zm2 0h2v2h-2v-2zm2 0h2v2h-2v-2zm2 0h2v2h-2v-2zm8 0h2v2h-2v-2zm4 0h2v2h-2v-2zm2 0h2v2h-2v-2zm2 0h2v2h-2v-2zm2 0h2v2h-2v-2zm2 0h2v2h-2v-2zm2 0h2v2h-2v-2zm2 0h2v2h-2v-2zm2 0h2v2h-2v-2zm2 0h2v2h-2v-2zm2 0h2v2h-2v-2zm2 0h2v2h-2v-2zm-32 2h2v2h-2v-2zm12 0h2v2h-2v-2zm4 0h2v2h-2v-2zm8 0h2v2h-2v-2zm8 0h2v2h-2v-2zm-48 2h2v2h-2v-2zm2 0h2v2h-2v-2zm2 0h2v2h-2v-2zm2 0h2v2h-2v-2zm2 0h2v2h-2v-2zm2 0h2v2h-2v-2zm2 0h2v2h-2v-2zm14 0h2v2h-2v-2zm2 0h2v2h-2v-2zm4 0h2v2h-2v-2zm4 0h2v2h-2v-2zm4 0h2v2h-2v-2zm2 0h2v2h-2v-2zm2 0h2v2h-2v-2zm2 0h2v2h-2v-2zm2 0h2v2h-2v-2zm-48 2h2v2h-2v-2zm12 0h2v2h-2v-2zm6 0h2v2h-2v-2zm4 0h2v2h-2v-2zm4 0h2v2h-2v-2zm2 0h2v2h-2v-2zm4 0h2v2h-2v-2zm8 0h2v2h-2v-2zm8 0h2v2h-2v-2zm-48 2h2v2h-2v-2zm4 0h2v2h-2v-2zm2 0h2v2h-2v-2zm2 0h2v2h-2v-2zm4 0h2v2h-2v-2zm6 0h2v2h-2v-2zm2 0h2v2h-2v-2zm6 0h2v2h-2v-2zm2 0h2v2h-2v-2zm4 0h2v2h-2v-2zm2 0h2v2h-2v-2zm2 0h2v2h-2v-2zm2 0h2v2h-2v-2zm2 0h2v2h-2v-2zm-40 2h2v2h-2v-2zm4 0h2v2h-2v-2zm2 0h2v2h-2v-2zm2 0h2v2h-2v-2zm4 0h2v2h-2v-2zm4 0h2v2h-2v-2zm2 0h2v2h-2v-2zm16 0h2v2h-2v-2zm2 0h2v2h-2v-2zm4 0h2v2h-2v-2zm4 0h2v2h-2v-2zm2 0h2v2h-2v-2zm2 0h2v2h-2v-2zm-48 2h2v2h-2v-2zm4 0h2v2h-2v-2zm2 0h2v2h-2v-2zm2 0h2v2h-2v-2zm4 0h2v2h-2v-2zm4 0h2v2h-2v-2zm2 0h2v2h-2v-2zm2 0h2v2h-2v-2zm8 0h2v2h-2v-2zm2 0h2v2h-2v-2zm2 0h2v2h-2v-2zm2 0h2v2h-2v-2zm2 0h2v2h-2v-2zm2 0h2v2h-2v-2zm2 0h2v2h-2v-2zm2 0h2v2h-2v-2zm2 0h2v2h-2v-2zm2 0h2v2h-2v-2zm-46 2h2v2h-2v-2zm12 0h2v2h-2v-2zm4 0h2v2h-2v-2zm2 0h2v2h-2v-2zm2 0h2v2h-2v-2zm2 0h2v2h-2v-2zm2 0h2v2h-2v-2zm2 0h2v2h-2v-2zm2 0h2v2h-2v-2zm8 0h2v2h-2v-2zm4 0h2v2h-2v-2zm4 0h2v2h-2v-2zm-44 2h2v2h-2v-2zm2 0h2v2h-2v-2zm2 0h2v2h-2v-2zm2 0h2v2h-2v-2zm2 0h2v2h-2v-2zm2 0h2v2h-2v-2zm2 0h2v2h-2v-2zm4 0h2v2h-2v-2zm2 0h2v2h-2v-2zm4 0h2v2h-2v-2zm12 0h2v2h-2v-2zm2 0h2v2h-2v-2zm2 0h2v2h-2v-2zm2 0h2v2h-2v-2zm2 0h2v2h-2v-2zm2 0h2v2h-2v-2zm2 0h2v2h-2v-2zm2 0h2v2h-2v-2z" fill="#FF6000"/></g></svg>