<?xml version="1.0" encoding="UTF-8"?>
<svg fill="none" height="56" viewBox="0 0 56 56" width="56" xmlns="http://www.w3.org/2000/svg">
<ellipse cx="26.1017" cy="29.6471" fill="#FFF2EA" rx="25.6271" ry="25.4118"></ellipse>
<path clip-rule="evenodd" d="M24.2338 50.9981C24.3256 51.0157 24.413 51.051 24.4911 51.102C24.5691 51.1531 24.6362 51.2189 24.6886 51.2956C24.741 51.3724 24.7777 51.4587 24.7964 51.5495C24.8152 51.6403 24.8158 51.7339 24.7981 51.8249C24.7804 51.916 24.7448 52.0026 24.6933 52.08C24.6418 52.1574 24.5755 52.224 24.498 52.2759C24.4206 52.3279 24.3336 52.3642 24.242 52.3828C24.1504 52.4015 24.056 52.402 23.9642 52.3845C12.3447 50.1642 3.54038 40.4574 2.70513 28.6009C1.69143 14.2353 12.6342 1.77411 27.1453 0.768929C41.6555 -0.237189 54.2413 10.5925 55.2545 24.9572C55.6354 30.2446 54.3728 35.5208 51.6368 40.0748C51.5401 40.2357 51.383 40.3519 51.1999 40.3979C51.0168 40.4439 50.8228 40.4158 50.6606 40.32C50.4983 40.2241 50.3811 40.0683 50.3348 39.8868C50.2884 39.7052 50.3167 39.5129 50.4133 39.352C53.0006 35.0456 54.1944 30.0563 53.8341 25.0565C52.8754 11.4692 40.9712 1.22587 27.2445 2.17693C13.5174 3.12846 3.16641 14.9153 4.12411 28.5026C4.91523 39.7167 13.2431 48.8979 24.2333 50.9981H24.2338Z" fill="#FF6000" fill-rule="evenodd"></path>
<g clip-path="url(#clip0_3_1683)">
<path d="M38.8204 22.2354L39.5323 26.0613L37.3397 27.6142L36.4143 23.4213L31.0184 26.3295L33.994 41.5907L45.0848 32.6401L43.1343 19.8918L38.8204 22.2354Z" fill="#FF6000"></path>
<path d="M25.0672 24.9459C25.0102 24.9177 24.9675 24.9036 24.9106 24.8895L12.0543 20.9789C11.5845 20.8377 11.1004 21.0918 10.958 21.5577C10.8157 22.0236 11.0719 22.5036 11.5418 22.6448L20.6536 25.4118L21.2516 28.2495L16.5675 26.4C16.1119 26.2165 15.5994 26.4424 15.4285 26.88C15.2434 27.3318 15.4712 27.84 15.9126 28.0095L21.6645 30.2824L22.3336 33.5012L13.535 28.56C13.1079 28.32 12.5811 28.4753 12.339 28.8848C12.097 29.3083 12.2536 29.8306 12.6665 30.0706L22.7892 35.76L32.9689 41.4918L29.979 26.4424L25.0672 24.9459Z" fill="#FF6000"></path>
<path d="M24.2556 19.92L23.0882 20.64L17.4217 18.9177C16.9661 18.7765 16.4678 19.0306 16.3255 19.4965C16.1831 19.9482 16.4394 20.4424 16.9092 20.5835L21.1092 21.8541L20.44 22.2777L30.4631 25.4118L35.8448 22.4047L24.2556 19.92Z" fill="#FF6000"></path>
<path d="M24.2841 17.8306L27.3593 18.353L26.1634 19.0165L37.9519 21.2189L42.337 18.72L29.7939 16.9836L29.7797 16.9977L24.5831 16.1083C24.099 16.0236 23.6576 16.3483 23.5722 16.8142C23.4868 17.2942 23.8143 17.7459 24.2841 17.8306Z" fill="#FF6000"></path>
</g>
<defs>
<clipPath id="clip0_3_1683"><rect fill="white" height="33.8824" transform="translate(10.9153 11.2941)" width="34.1695"></rect></clipPath>
</defs>
</svg>